<?xml version="1.0" standalone="no"?>
<!DOCTYPE svg PUBLIC "-//W3C//DTD SVG 20010904//EN"
 "http://www.w3.org/TR/2001/REC-SVG-20010904/DTD/svg10.dtd">
<svg version="1.0" xmlns="http://www.w3.org/2000/svg"
 width="64.000000pt" height="64.000000pt" viewBox="0 0 64.000000 64.000000"
 preserveAspectRatio="xMidYMid meet">

<g transform="translate(0.000000,64.000000) scale(0.100000,-0.100000)"
fill="#000000" stroke="none">
<path d="M215 536 c-60 -28 -87 -56 -114 -116 -38 -84 -20 -201 42 -269 61
-66 190 -90 277 -50 45 20 80 46 80 59 0 4 -24 12 -53 19 -102 22 -171 109
-171 211 1 53 29 130 54 145 21 13 8 25 -27 25 -21 0 -60 -11 -88 -24z"/>
</g>
</svg>
