<?xml version="1.0" standalone="no"?>
<!DOCTYPE svg PUBLIC "-//W3C//DTD SVG 20010904//EN"
 "http://www.w3.org/TR/2001/REC-SVG-20010904/DTD/svg10.dtd">
<svg version="1.0" xmlns="http://www.w3.org/2000/svg"
 width="64.000000pt" height="64.000000pt" viewBox="0 0 64.000000 64.000000"
 preserveAspectRatio="xMidYMid meet">

<g transform="translate(0.000000,64.000000) scale(0.100000,-0.100000)"
fill="#000000" stroke="none">
<path d="M240 599 c-128 -54 -171 -194 -100 -327 18 -35 46 -74 61 -86 22 -19
28 -34 31 -72 3 -41 7 -50 33 -65 17 -10 41 -18 55 -18 14 0 39 8 55 18 26 15
30 24 33 65 3 38 9 53 31 72 15 12 43 51 61 86 62 117 40 233 -58 302 -36 25
-54 31 -110 33 -37 2 -78 -2 -92 -8z m160 -31 c132 -68 145 -220 30 -351 -32
-37 -33 -37 -110 -37 -77 0 -78 0 -110 37 -85 97 -103 216 -44 291 37 45 106
82 154 82 20 0 56 -10 80 -22z m-20 -453 l0 -35 -60 0 -60 0 0 35 0 35 60 0
60 0 0 -35z"/>
</g>
</svg>
